# xmcd
#
# Track frame offsets: 
#        150
#        11978
#        21389
#        32747
#        45257
#        54357
#        68115
#        79304
#        92180
#        104065
#        118356
#        129725
#        135705
#        145448
#        156671
#        169041
#
# Disc length: 2385 seconds
#
# Revision: 1
# Processed by: cddbd v1.5.2PL0 Copyright (c) Steve Scherf et al.
# Submitted via: ExactAudioCopyFreeDBPlugin 1.0
#
DISCID=f0094f10
DTITLE=Various Artist - Country Legends - Rawhide
DYEAR=2007
DGENRE=Country
TTITLE0=Conway Twitty (aka Harold Jenkins) - Linda On My Mind
TTITLE1=Dave Dudley - Six Days On The Road
TTITLE2=Patsy Cline - Walking After Midnight
TTITLE3=Rex Allen Junior - Country Comfort
TTITLE4=Frankie Laine - Rawhide
TTITLE5=Patti Page - The Tennessee Waltz
TTITLE6=Johnny Cash - Oh Lonesome Me
TTITLE7=Faron Young - Apartment No  9
TTITLE8=Skeeter Davis - I Can't Help You I Am Falling Too
TTITLE9=Freddy Fender - Wild Side Of Life
TTITLE10=Lynn Anderson - Listen To A Country Song
TTITLE11=Loretta Lynn - I Fall To Pieces
TTITLE12=Willie Nelson - Let's Pretend
TTITLE13=Jeannie C Riley - Box Of Memories
TTITLE14=Charlie Rich - Behind Closed Doors
TTITLE15=Billy Jo Spears - My Arms Stay Open Late
EXTD=YEAR: 2007
EXTT0=
EXTT1=
EXTT2=
EXTT3=
EXTT4=
EXTT5=
EXTT6=
EXTT7=
EXTT8=
EXTT9=
EXTT10=
EXTT11=
EXTT12=
EXTT13=
EXTT14=
EXTT15=
PLAYORDER=
